HIERARCHY
ROOT Pelvis
{
	OFFSET 0.000000 0.000000 0.000000
	CHANNELS 6 Xposition Yposition Zposition Xrotation Yrotation Zrotation
	JOINT LeftUpLeg_virtual
	{
		OFFSET 0.000000 0.000000 0.000000
		CHANNELS 3 Xrotation Yrotation Zrotation
		JOINT LeftUpLeg
		{
			OFFSET 18.735201 -5.666702 -4.541200
			CHANNELS 3 Xrotation Yrotation Zrotation
			JOINT LeftLeg
			{
				OFFSET -0.021200 -31.938179 0.493100
				CHANNELS 3 Xrotation Yrotation Zrotation
				JOINT LeftFoot
				{
					OFFSET 0.021200 -31.938179 -4.336299
					CHANNELS 3 Xrotation Yrotation Zrotation
					JOINT LeftToeBase
					{
						OFFSET 0.943001 -26.722000 15.023500
						CHANNELS 3 Xrotation Yrotation Zrotation
						End Site
						{
							OFFSET 0 0 0
						}
					}
				}
			}
		}
	}
	JOINT RightUpLeg_virtual
	{
		OFFSET 0.000000 0.000000 0.000000
		CHANNELS 3 Xrotation Yrotation Zrotation
		JOINT RightUpLeg
		{
			OFFSET -18.735201 -5.666702 -4.541200
			CHANNELS 3 Xrotation Yrotation Zrotation
			JOINT RightLeg
			{
				OFFSET 0.018946 -31.938133 0.493100
				CHANNELS 3 Xrotation Yrotation Zrotation
				JOINT RightFoot
				{
					OFFSET -0.018946 -31.938126 -4.336299
					CHANNELS 3 Xrotation Yrotation Zrotation
					JOINT RightToeBase
					{
						OFFSET -0.943001 -26.722004 15.023500
						CHANNELS 3 Xrotation Yrotation Zrotation
						End Site
						{
							OFFSET 0 0 0
						}
					}
				}
			}
		}
	}
	JOINT Hips_virtual
	{
		OFFSET 0.000000 0.000000 0.000000
		CHANNELS 3 Xrotation Yrotation Zrotation
		JOINT Hips
		{
			OFFSET -0.000000 -0.000000 -0.000000
			CHANNELS 3 Xrotation Yrotation Zrotation
			JOINT Spine
			{
				OFFSET 0.000000 10.199997 -0.299500
				CHANNELS 3 Xrotation Yrotation Zrotation
				JOINT Spine1
				{
					OFFSET 0.000000 11.900002 -1.516600
					CHANNELS 3 Xrotation Yrotation Zrotation
					JOINT Spine2
					{
						OFFSET 0.000000 13.600006 -2.842500
						CHANNELS 3 Xrotation Yrotation Zrotation
						JOINT Neck_virtual
						{
							OFFSET 0.000000 0.000000 0.000000
							CHANNELS 3 Xrotation Yrotation Zrotation
							JOINT Neck
							{
								OFFSET 0.000000 9.624100 -2.890100
								CHANNELS 3 Xrotation Yrotation Zrotation
								JOINT Head
								{
									OFFSET 0.000000 14.068802 -1.351900
									CHANNELS 3 Xrotation Yrotation Zrotation
									End Site
									{
										OFFSET 0 0 0
									}
								}
							}
						}
						JOINT LeftShoulder_virtual
						{
							OFFSET 0.000000 0.000000 0.000000
							CHANNELS 3 Xrotation Yrotation Zrotation
							JOINT LeftShoulder
							{
								OFFSET 15.263000 10.923401 -0.547700
								CHANNELS 3 Xrotation Yrotation Zrotation
								JOINT LeftArm
								{
									OFFSET 25.438599 -2.830597 -13.032500
									CHANNELS 3 Xrotation Yrotation Zrotation
									JOINT LeftForeArm
									{
										OFFSET 29.960503 0.000000 0.000000
										CHANNELS 3 Xrotation Yrotation Zrotation
										JOINT LeftHand
										{
											OFFSET 27.849251 0.000000 0.000000
											CHANNELS 3 Xrotation Yrotation Zrotation
											End Site
											{
												OFFSET 0 0 0
											}
										}
									}
								}
							}
						}
						JOINT RightShoulder_virtual
						{
							OFFSET 0.000000 0.000000 0.000000
							CHANNELS 3 Xrotation Yrotation Zrotation
							JOINT RightShoulder
							{
								OFFSET -15.263000 10.923401 -0.547700
								CHANNELS 3 Xrotation Yrotation Zrotation
								JOINT RightArm
								{
									OFFSET -25.438599 -2.830597 -13.032500
									CHANNELS 3 Xrotation Yrotation Zrotation
									JOINT RightForeArm
									{
										OFFSET -29.960503 0.000000 0.000000
										CHANNELS 3 Xrotation Yrotation Zrotation
										JOINT RightHand
										{
											OFFSET -27.849251 0.000000 0.000000
											CHANNELS 3 Xrotation Yrotation Zrotation
											End Site
											{
												OFFSET 0 0 0
											}
										}
									}
								}
							}
						}
					}
				}
			}
		}
	}
}
MOTION
Frames: 5
Frame Time: 0.03333333
0.384624 92.960747 0.836446 0.000000 0.000000 0.000000 10.538444 -21.237879 0.301884 -26.494372 6.449537 13.598779 36.500015 3.190138 -3.210929 -11.904678 4.804393 -8.105461 0.000000 0.000000 0.000000 8.308397 -1.114745 1.329331 -18.280035 -5.922381 -13.136653 27.594770 -2.886891 0.258033 -19.900852 -7.294101 9.584554 0.000000 0.000000 0.000000 0.356161 -3.159821 0.352160 4.886957 4.601746 -0.490110 5.387579 -0.983694 -0.000503 1.167016 -0.007648 0.230067 0.000000 0.000000 0.000000 2.283314 -0.217294 0.106710 -1.056634 0.153996 -0.014049 0.000000 0.000000 0.000000 1.471967 1.252850 -0.995347 0.952311 1.293365 -11.994757 5.290335 -3.599097 -52.933218 4.875471 -33.350151 -2.697150 0.000000 0.000000 0.000000 2.544377 -1.512271 0.939290 1.398096 -0.511899 10.994025 5.580079 4.365474 51.317233 4.146071 48.881536 2.070691 0.000000 0.000000 0.000000 
0.296357 92.943008 0.871387 0.000000 0.000000 0.000000 10.616888 -21.154892 0.328823 -26.405457 6.481229 13.631489 36.573600 3.134121 -3.220272 -11.829345 4.754202 -8.164575 0.000000 0.000000 0.000000 8.259697 -1.019397 1.349940 -18.346561 -5.891823 -13.100870 27.648691 -2.912123 0.270091 -19.870279 -7.319209 9.580100 0.000000 0.000000 0.000000 0.352135 -3.227607 0.363429 4.936691 4.728009 -0.520815 5.325863 -1.065611 -0.078939 1.115438 -0.023110 0.209683 0.000000 0.000000 0.000000 2.287464 -0.236398 0.085011 -1.069917 0.153754 -0.017853 0.000000 0.000000 0.000000 1.419406 1.231998 -1.019630 0.926782 1.340246 -12.088172 5.268638 -3.661481 -52.891018 4.893521 -33.560302 -2.628013 0.000000 0.000000 0.000000 2.502055 -1.509096 0.917949 1.388145 -0.605118 11.040977 5.512006 4.160375 51.377400 4.006948 48.984737 2.176008 0.000000 0.000000 0.000000 
0.139273 92.913483 0.941322 0.000000 0.000000 0.000000 10.751683 -20.961866 0.365044 -26.254050 6.551630 13.686893 36.700966 3.032593 -3.227672 -11.695090 4.658855 -8.257847 0.000000 0.000000 0.000000 8.160740 -0.843532 1.385950 -18.483894 -5.833644 -13.037836 27.775157 -2.944896 0.288856 -19.792988 -7.348172 9.574709 0.000000 0.000000 0.000000 0.340292 -3.368586 0.391506 5.006153 4.973520 -0.552503 5.208469 -1.211677 -0.223277 1.023161 -0.053908 0.170106 0.000000 0.000000 0.000000 2.294477 -0.269983 0.045340 -1.094614 0.152540 -0.024923 0.000000 0.000000 0.000000 1.324348 1.191984 -1.062994 0.880253 1.424318 -12.250749 5.248515 -3.776038 -52.803127 4.926404 -33.971851 -2.498963 0.000000 0.000000 0.000000 2.425457 -1.502755 0.879433 1.365413 -0.782256 11.125755 5.379153 3.776136 51.492796 3.750452 49.163230 2.375176 0.000000 0.000000 0.000000 
-0.055308 92.882339 1.045356 0.000000 0.000000 0.000000 10.907153 -20.618936 0.380835 -26.081605 6.671235 13.746329 36.842406 2.905256 -3.214721 -11.534987 4.529405 -8.342795 0.000000 0.000000 0.000000 8.008605 -0.615812 1.429501 -18.699627 -5.753907 -12.961383 28.006451 -2.956066 0.303683 -19.641063 -7.344984 9.571288 0.000000 0.000000 0.000000 0.316239 -3.587333 0.444475 5.050368 5.322723 -0.541870 5.048582 -1.392836 -0.412358 0.907441 -0.099471 0.114076 0.000000 0.000000 0.000000 2.302559 -0.310740 -0.006308 -1.127415 0.149191 -0.034448 0.000000 0.000000 0.000000 1.202725 1.135739 -1.116623 0.820269 1.527832 -12.444951 5.263474 -3.925832 -52.667216 4.968340 -34.566932 -2.325937 0.000000 0.000000 0.000000 2.328500 -1.493094 0.830315 1.326672 -1.026227 11.232931 5.191367 3.261296 51.653541 3.415900 49.377172 2.645023 0.000000 0.000000 0.000000 
-0.255045 92.861046 1.180614 0.000000 0.000000 0.000000 11.048089 -20.095154 0.344379 -25.926879 6.848593 13.786056 36.942844 2.777689 -3.162507 -11.395459 4.383091 -8.371924 0.000000 0.000000 0.000000 7.800385 -0.374630 1.473844 -19.001513 -5.661564 -12.885471 28.380672 -2.914493 0.299249 -19.381531 -7.268959 9.566892 0.000000 0.000000 0.000000 0.278950 -3.878590 0.528502 5.031184 5.750917 -0.455256 4.867209 -1.578458 -0.622530 0.785706 -0.158202 0.046109 0.000000 0.000000 0.000000 2.310483 -0.351439 -0.063675 -1.164317 0.142657 -0.045694 0.000000 0.000000 0.000000 1.070854 1.066767 -1.170549 0.755153 1.628532 -12.635280 5.338474 -4.093367 -52.487552 5.011920 -35.318403 -2.127616 0.000000 0.000000 0.000000 2.227560 -1.479655 0.777222 1.271605 -1.314295 11.345237 4.968383 2.680305 51.845210 3.052359 49.596439 2.952124 0.000000 0.000000 0.000000 
